<svg width="55" height="55" viewBox="0 0 55 55" fill="none" xmlns="http://www.w3.org/2000/svg">
<path d="M0 0H55V55H0V0Z" fill="#F7DF1E"/>
<path d="M14.4615 45.9619L18.6703 43.4147C19.4824 44.8544 20.221 46.0726 21.9929 46.0726C23.6912 46.0726 24.7622 45.4083 24.7622 42.8241V25.2503H29.9307V42.8972C29.9307 48.2504 26.7927 50.6872 22.2144 50.6872C18.0797 50.6872 15.6797 48.5458 14.4613 45.9615M32.7381 45.4081L36.9464 42.9715C38.0544 44.7807 39.4943 46.1097 42.0414 46.1097C44.1832 46.1097 45.5488 45.0389 45.5488 43.5621C45.5488 41.7901 44.1458 41.1623 41.783 40.1289L40.4911 39.5746C36.7621 37.9876 34.2886 35.9938 34.2886 31.785C34.2886 27.9084 37.242 24.9547 41.8571 24.9547C45.1429 24.9547 47.5058 26.0994 49.2039 29.0898L45.1794 31.6744C44.2932 30.0869 43.3337 29.4593 41.8569 29.4593C40.3431 29.4593 39.3832 30.4193 39.3832 31.6744C39.3832 33.2249 40.3431 33.8529 42.5581 34.8128L43.8502 35.3665C48.2438 37.2496 50.7173 39.1692 50.7173 43.4884C50.7173 48.1407 47.0623 50.6878 42.1521 50.6878C37.3527 50.6878 34.2514 48.3989 32.7378 45.4083" fill="black"/>
</svg>
