<svg width="55" height="55" viewBox="0 0 55 55" fill="none" xmlns="http://www.w3.org/2000/svg">
<path d="M27.5 20.625C40.2944 20.625 48.125 25.0766 48.125 27.5C48.125 29.9234 40.2944 34.375 27.5 34.375C14.7056 34.375 6.875 29.9234 6.875 27.5C6.875 25.0766 14.7056 20.625 27.5 20.625ZM27.5 17.1875C14.2106 17.1875 3.4375 21.8041 3.4375 27.5C3.4375 33.1959 14.2106 37.8125 27.5 37.8125C40.7894 37.8125 51.5625 33.1959 51.5625 27.5C51.5625 21.8041 40.7894 17.1875 27.5 17.1875Z" fill="#00BCD4"/>
<path d="M27.5 24.0625C26.8201 24.0625 26.1555 24.2641 25.5902 24.6418C25.0249 25.0195 24.5843 25.5564 24.3242 26.1845C24.064 26.8126 23.9959 27.5038 24.1286 28.1706C24.2612 28.8374 24.5886 29.4499 25.0693 29.9307C25.5501 30.4114 26.1626 30.7388 26.8294 30.8715C27.4962 31.0041 28.1874 30.936 28.8155 30.6758C29.4436 30.4157 29.9805 29.9751 30.3582 29.4098C30.7359 28.8445 30.9375 28.1799 30.9375 27.5C30.9375 26.5883 30.5753 25.714 29.9307 25.0693C29.286 24.4247 28.4117 24.0625 27.5 24.0625Z" fill="#00BCD4"/>
<path d="M17.9747 9.46521C21.4414 9.46521 28.1789 14.9257 33.4538 24.0626C39.8509 35.1433 39.9111 44.1496 37.8125 45.3613C37.5704 45.4868 37.2994 45.5461 37.027 45.5332C33.5603 45.5332 26.8211 40.0744 21.5463 30.9376C15.1491 19.8568 15.0889 10.8505 17.1875 9.6388C17.4301 9.51298 17.7017 9.45196 17.9747 9.46521ZM17.973 6.02943C17.097 6.01358 16.2327 6.2313 15.4688 6.66021C10.5359 9.50818 11.9247 21.1476 18.5694 32.6563C24.2138 42.436 31.8381 48.9724 37.0288 48.9724C37.9044 48.9869 38.7682 48.768 39.5313 48.3382C44.4641 45.4919 43.0753 33.8526 36.4306 22.3438C30.7863 12.5641 23.1619 6.02771 17.9713 6.02771L17.973 6.02943Z" fill="#00BCD4"/>
<path d="M37.027 9.46518C37.2994 9.45224 37.5704 9.51153 37.8125 9.63706C39.9111 10.8505 39.8509 19.8567 33.4537 30.9375C28.1772 40.0744 21.4397 45.5349 17.9729 45.5349C17.7006 45.5478 17.4296 45.4885 17.1875 45.363C15.0889 44.1478 15.149 35.1416 21.5462 24.0625C26.8228 14.9256 33.5603 9.46518 37.027 9.46518ZM37.027 6.02768C31.8364 6.02768 24.2137 12.5658 18.5676 22.3438C11.9264 33.8525 10.5359 45.4919 15.4687 48.3382C16.2323 48.7683 17.0967 48.9872 17.9729 48.9724C23.1636 48.9724 30.7862 42.4342 36.4323 32.6563C43.0736 21.1475 44.464 9.50815 39.5312 6.6619C38.7677 6.23179 37.9033 6.01288 37.027 6.02768Z" fill="#00BCD4"/>
</svg>
